 <svg  version="1.0" xmlns="http://www.w3.org/2000/svg"  width="300.000000pt" height="300.000000pt" viewBox="0 0 300.000000 300.000000"  preserveAspectRatio="xMidYMid meet">  <g transform="translate(0.000000,300.000000) scale(0.100000,-0.100000)" fill="#ffffff" stroke="none"> <path d="M2303 1898 c-6 -7 -111 -213 -233 -456 -203 -404 -221 -445 -207 -460 14 -13 18 -13 33 -2 23 20 456 889 452 908 -4 21 -32 27 -45 10z"/> <path d="M712 1838 c-9 -9 -12 -99 -12 -364 0 -299 2 -353 15 -364 27 -23 45 -4 45 47 l0 48 26 -33 c85 -107 253 -100 341 16 43 56 56 110 51 204 -4 63 -10 86 -34 125 -80 129 -255 150 -349 41 l-34 -41 -3 164 c-3 137 -5 164 -18 167 -9 1 -21 -3 -28 -10z m307 -282 c112 -58 142 -223 61 -334 -78 -108 -233 -91 -295 32 -40 79 -29 201 22 258 50 56 148 77 212 44z"/> <path d="M1322 1838 c-9 -9 -12 -99 -12 -364 0 -299 2 -353 15 -364 27 -23 45 -4 45 47 l0 48 26 -33 c61 -77 181 -99 267 -48 84 49 127 130 127 241 0 34 -5 77 -12 96 -59 173 -262 225 -375 96 l-33 -37 -2 162 c-3 136 -5 163 -18 166 -9 1 -21 -3 -28 -10z m306 -282 c66 -34 105 -105 105 -192 0 -85 -31 -146 -92 -186 -123 -79 -271 21 -271 184 0 127 69 208 178 208 29 0 65 -6 80 -14z"/> <path d="M2451 1681 c-34 -21 -3 -48 166 -141 95 -52 172 -97 172 -100 1 -3 -74 -45 -166 -95 -185 -99 -200 -110 -182 -131 6 -8 17 -14 23 -14 6 0 99 49 206 108 248 136 246 128 65 230 -246 140 -270 151 -284 143z"/> <path d="M325 1571 c-163 -93 -190 -112 -190 -132 0 -21 28 -40 198 -138 165 -95 200 -111 213 -100 8 6 14 18 12 26 -2 7 -81 58 -176 112 l-174 99 139 77 c164 92 213 123 213 133 0 12 -22 32 -34 32 -6 -1 -96 -49 -201 -109z"/> </g> </svg> 